<?xml version="1.0" encoding="utf-8"?>
<!-- Generator: Adobe Illustrator 26.0.3, SVG Export Plug-In . SVG Version: 6.00 Build 0)  -->
<svg version="1.1" id="Layer_1" xmlns="http://www.w3.org/2000/svg" xmlns:xlink="http://www.w3.org/1999/xlink" x="0px" y="0px"
	 viewBox="0 0 700 700" style="enable-background:new 0 0 700 700;" xml:space="preserve">
<path d="M221.7,116.5c-3.3,2.3-78.9,57.7-108.9,140.4c-6.5,12.3-8,33.6,9.5,51.3l-6.1,8.8c-5.6,8-3.7,19,4.3,24.7
	c8,5.6,19,3.7,24.7-4.3l5.6-7.9l38.4,26.9l-5.6,7.9c-5.6,8-3.7,19,4.3,24.7c8,5.6,19,3.7,24.7-4.3l5.6-7.9l92.1,64.5l-5.6,7.9
	c-5.6,8-3.7,19,4.3,24.7c8,5.6,19,3.7,24.7-4.3l5.6-7.9L364,479l-5.6,7.9c-5.6,8-3.7,19,4.3,24.7c8,5.7,19,3.7,24.7-4.3l5.6-7.9
	l24.7,17.3l-5.6,7.9c-5.6,8-3.7,19,4.3,24.7s19,3.7,24.7-4.3l5.6-7.9l24.7,17.3l-5.6,7.9c-5.6,8-3.7,19,4.3,24.7s19,3.7,24.7-4.3
	l7.3-10.4c4.4,1.7,9.2,3.4,14.3,4.5c25.2,5.5,46.8-2.3,61.2-22.1c14.7-16.3,24.9-50.8-5.9-83l-2.2-1.9
	c-83.2-62-148.7-212.7-149.3-214.3l-1.3-3.1l-45.7-45.2l-8.5,0.9c-57.3,6.3-75.8,2.4-80.1,1.1l-1.5-1c-12.7-8.9-17.5-16.5-19.3-20.1
	l9-42.2l-5.2-6.6c-6.2-7.9-12.9-14.2-19.7-19.1c-2.8-2-5-3.3-6.7-4.1l-9.1-6.4L221.7,116.5L221.7,116.5z M336.8,416.7l97.3-57.6
	c4.9,8.3,10.2,16.9,15.8,25.6l-86.3,50.7L336.8,416.7z M305,394.3l-26.5-18.5l124.3-74.3c4,7.9,8.7,16.9,13.9,26.7L305,394.3z
	 M549.2,532.7c-4.4,6.2-10.8,12.1-25.4,8.9c-11.6-2.5-22.1-9.6-24.1-11l-0.5-0.3l-103.7-72.6l74.4-43.7c22.5,31.1,48.5,61.1,77,82.6
	c17,18.8,6.4,31.5,4.1,34L549.2,532.7L549.2,532.7z M145.5,270.3c20.3-56.7,66.9-100.4,87.1-117.5c0.6,0.5,1.2,1.1,1.7,1.7
	l-7.1,32.8l0.4,2.9c0.5,3.9,4.2,24,33.3,45c0.9,0.9,1.8,1.6,2.8,2.3c4.9,3.4,19.3,13.5,96.2,5.9l26.8,26.4l-140,83.6l-95.3-66.7
	c-10.9-7.6-7.8-12.9-7.6-13.2l1-1.6L145.5,270.3L145.5,270.3z"/>
</svg>
