<?xml version="1.0" encoding="utf-8"?>
<!-- Generator: Adobe Illustrator 26.0.3, SVG Export Plug-In . SVG Version: 6.00 Build 0)  -->
<svg version="1.1" id="Layer_1" xmlns="http://www.w3.org/2000/svg" xmlns:xlink="http://www.w3.org/1999/xlink" x="0px" y="0px"
	 viewBox="0 0 700 700" style="enable-background:new 0 0 700 700;" xml:space="preserve">
<g>
	<path d="M499.7,199.8c-32.5-32.5-86-32.5-118.5,0l-85.2,86l118.5,118.5l86-86C532.3,285.8,532.3,232.5,499.7,199.8L499.7,199.8z
		 M491.6,311.4l-76.3,76.3L312.2,285.3l77-77c28.3-28.3,74.2-28.3,102.4,0C519.9,236.5,519.9,282.4,491.6,311.4z"/>
	<path d="M199.6,383.6c-31.9,31.9-31.9,85.2,0,117.1s85.2,31.9,117.1,0l86-86L286.4,297.6L199.6,383.6z"/>
</g>
</svg>
