<?xml version="1.0" encoding="utf-8"?>
<!-- Generator: Adobe Illustrator 26.0.3, SVG Export Plug-In . SVG Version: 6.00 Build 0)  -->
<svg version="1.1" id="Layer_1" xmlns="http://www.w3.org/2000/svg" xmlns:xlink="http://www.w3.org/1999/xlink" x="0px" y="0px"
	 viewBox="0 0 700 700" style="enable-background:new 0 0 700 700;" xml:space="preserve">
<g>
	<path d="M385.4,270.4c9,1.3,18.2,0.3,26.5-3c7.1,5.6,15.5,9.2,24.5,10.6c2.6,0.4,5.2,0.6,7.8,0.6h0c25.7,0,48-19.2,51.7-44.7
		c3.1-20.8-6.6-41.1-23.8-51.9l22.5-151.5c0.5-3.7-0.4-7.4-2.6-10.4c-2.2-3-5.5-5-9.2-5.5l-65.2-9.7c-7.7-1.1-14.8,4.1-15.9,11.8
		l-22.5,151.5c-19.6,5.4-34.8,21.9-37.9,42.8C337,239.5,356.8,266.1,385.4,270.4L385.4,270.4z M369,215
		c1.7-11.6,11.4-20.3,23.1-20.7c6.7-0.3,12.3-5.3,13.3-11.9l22-147.8l37.6,5.6l-22,147.8c-1,6.7,2.9,13.1,9.2,15.3
		c11,3.8,17.8,15,16.1,26.6c-1.9,13-14.6,22.5-27.7,20.5c-6-0.9-11.4-4-15.3-8.7c-2.8-3.4-6.8-5.2-10.9-5.2c-2.7,0-5.4,0.8-7.8,2.4
		c-5.1,3.4-11.2,4.8-17.1,3.9C376.2,240.7,367,228.3,369,215L369,215z"/>
	<path d="M495.9,326.1c-3.8-25.5-26-44.6-51.7-44.6c-2.6,0-5.2,0.2-7.7,0.6c-9,1.3-17.4,5-24.5,10.6c-8.3-3.2-17.5-4.3-26.6-3
		c-28.5,4.3-48.3,30.9-44.1,59.5c3.1,20.8,18.3,37.4,37.9,42.8l22.5,151.5c0.5,3.7,2.5,7,5.5,9.2c2.4,1.8,5.3,2.8,8.3,2.8
		c0.7,0,1.4-0.1,2.1-0.2l65.2-9.7c7.6-1.1,12.9-8.3,11.8-15.9L472.1,378C489.3,367.2,499,346.9,495.9,326.1L495.9,326.1z
		 M442.9,372.1l22,147.8l-37.6,5.6l-22-147.8c-1-6.7-6.6-11.7-13.3-11.9c-11.7-0.5-21.4-9.2-23.1-20.7c-2-13.3,7.2-25.7,20.5-27.7
		c1.2-0.2,2.4-0.3,3.6-0.3c4.8,0,9.5,1.4,13.6,4.2c6,4,14.1,2.8,18.7-2.8c3.9-4.7,9.3-7.8,15.3-8.7c13.1-2,25.7,7.5,27.7,20.5
		c1.7,11.6-5,22.7-16.1,26.6C445.8,359,441.9,365.4,442.9,372.1L442.9,372.1z"/>
	<path d="M313.4,250.3c2.7,2.3,5.9,3.4,9.2,3.4c3.9,0,7.8-1.6,10.6-4.8c5.1-5.8,4.5-14.7-1.4-19.8l-79.1-68.9
		c-5.8-5.1-14.7-4.5-19.8,1.4c-5.1,5.8-4.5,14.7,1.4,19.8L313.4,250.3z"/>
	<path d="M322.6,283.1c7.5,0,13.7-5.9,14-13.4c0.3-7.7-5.7-14.3-13.4-14.6l-105-4.6c-7.6-0.3-14.3,5.7-14.6,13.4
		c-0.3,7.7,5.7,14.3,13.4,14.6l105,4.6C322.2,283.1,322.4,283.1,322.6,283.1L322.6,283.1z"/>
	<path d="M314.3,295.1L245.4,346c-6.2,4.6-7.5,13.4-3,19.6c2.7,3.7,7,5.7,11.3,5.7c2.9,0,5.8-0.9,8.3-2.7l68.9-50.8
		c6.2-4.6,7.5-13.4,3-19.6C329.2,291.9,320.5,290.6,314.3,295.1L314.3,295.1z"/>
</g>
</svg>
