<?xml version="1.0" encoding="utf-8"?>
<!-- Generator: Adobe Illustrator 26.0.3, SVG Export Plug-In . SVG Version: 6.00 Build 0)  -->
<svg version="1.1" id="Layer_1" xmlns="http://www.w3.org/2000/svg" xmlns:xlink="http://www.w3.org/1999/xlink" x="0px" y="0px"
	 viewBox="0 0 700 700" style="enable-background:new 0 0 700 700;" xml:space="preserve">
<path d="M350,40C195.4,40,70,165.4,70,320s125.4,280,280,280c154.7,0,280-125.4,280-280S504.7,40,350,40z M426.4,428.1
	c-13.8,15.4-33.7,24.5-59.7,27.3V495h-33.2v-39.4c-43.4-4.4-70.2-29.7-80.6-75.6l51.3-13.4c4.8,28.9,20.5,43.3,47.2,43.3
	c12.5,0,21.7-3.1,27.6-9.3c5.9-6.2,8.8-13.6,8.8-22.4c0-9.1-2.9-15.9-8.8-20.6c-5.9-4.7-19-10.6-39.2-17.8
	c-18.2-6.3-32.5-12.5-42.7-18.8c-10.3-6.2-18.6-14.8-25-25.9c-6.4-11.1-9.6-24.1-9.6-38.9c0-19.4,5.7-36.8,17.2-52.4
	c11.4-15.5,29.4-25,53.9-28.4l0-30.6h33.2v30.6c37.1,4.4,61,25.4,71.9,62.9L393,257.2c-8.9-25.7-22.7-38.6-41.3-38.6
	c-9.4,0-16.9,2.9-22.5,8.6c-5.7,5.7-8.5,12.7-8.5,20.9c0,8.3,2.7,14.7,8.2,19.2c5.4,4.4,17.2,9.9,35.1,16.5
	c19.7,7.2,35.1,14,46.3,20.4c11.2,6.4,20.1,15.2,26.8,26.5c6.7,11.3,10,24.4,10,39.5C447,393.4,440.1,412.7,426.4,428.1L426.4,428.1
	z"/>
</svg>
