<?xml version="1.0" encoding="utf-8"?>
<!-- Generator: Adobe Illustrator 26.0.3, SVG Export Plug-In . SVG Version: 6.00 Build 0)  -->
<svg version="1.1" id="Layer_1" xmlns="http://www.w3.org/2000/svg" xmlns:xlink="http://www.w3.org/1999/xlink" x="0px" y="0px"
	 viewBox="0 0 700 700" style="enable-background:new 0 0 700 700;" xml:space="preserve">
<g>
	<path d="M543,243.5c-5.4-53.6-50.7-95.4-105.7-95.4c-23.1,0-44.5,7.4-62,20c21.9,33.2,34.7,73,34.7,115.8
		c0,83.1-48.1,154.9-118,189.1c19.6,18.6,36.5,37.4,47.3,57.5c45.8-86.1,204.3-147.1,204.3-276.2C543.6,250.7,543.4,247.1,543,243.5
		L543,243.5z"/>
	<path d="M241.3,148.1c-55,0-100.3,41.8-105.7,95.4c-0.4,3.6-0.5,7.2-0.5,10.9c0,77.9,57.6,130.9,113.4,179.7
		c63.3-20.6,109-80,109-150.1c-0.7-19.8-0.5-30.3-18.2-70.7C321.6,172.8,285.4,148.1,241.3,148.1L241.3,148.1z"/>
	<path d="M287.1,76.5c0,26.1-21.2,47.3-47.3,47.3s-47.3-21.2-47.3-47.3s21.2-47.3,47.3-47.3S287.1,50.4,287.1,76.5"/>
	<path d="M497.8,76.5c0,26.1-21.2,47.3-47.3,47.3s-47.3-21.2-47.3-47.3s21.2-47.3,47.3-47.3S497.8,50.4,497.8,76.5"/>
</g>
</svg>
